<svg id="eKARBt2mapQ1" xmlns="http://www.w3.org/2000/svg" xmlns:xlink="http://www.w3.org/1999/xlink" viewBox="0 0 1024 1024" shape-rendering="geometricPrecision" text-rendering="geometricPrecision" project-id="f7baad6a36f64f73ab44bbd9016c1c7f" export-id="e48af59aa20844ba85810f56f2d20293" cached="true"><rect width="102.4" height="102.4" rx="13" ry="13" transform="matrix(6.34451 0 0 5.975674 187.161088 206.045491)" fill="#212530" stroke-width="0"/><rect width="109.40171" height="279.395135" rx="12" ry="12" transform="matrix(1.120926 0 0 1.025748 284.966883 465.82014)" fill="#f1e9df" stroke-width="0"/><rect width="109.40171" height="279.395135" rx="11" ry="11" transform="matrix(1.332243 0 0 1.469068 452.500988 341.958688)" fill="#f1e9df" stroke-width="0"/><rect width="109.40171" height="279.395135" rx="12" ry="12" transform="matrix(1.002841 0 0 0.877335 633.163599 507.286009)" fill="#f1e9df" stroke-width="0"/><path d="M523.515016,417.875646q172.524702-16.079668,164.504843,118.022343" transform="matrix(1.042903 0.001228-.001228 1.042903-29.375786-21.332762)" fill="none" stroke="#212530" stroke-width="25"/><ellipse rx="102.4" ry="102.4" transform="matrix(.207499 0 0 0.207499 346.282494 496.0161)" fill="#212530" stroke-width="0"/><ellipse rx="102.4" ry="102.4" transform="matrix(.207499 0 0 0.207499 688.019859 535.897989)" fill="#212530" stroke-width="0"/><ellipse rx="102.4" ry="102.4" transform="matrix(.207499 0 0 0.207499 523.515016 417.875646)" fill="#212530" stroke-width="0"/><rect width="23.889338" height="20.217918" rx="0" ry="0" transform="translate(334.337825 465.82014)" fill="#212530" stroke-width="0"/><ellipse rx="102.4" ry="102.4" transform="matrix(.116647 0 0 0.116647 346.282494 497.176997)" fill="#1bc7c8" stroke-width="0"/><ellipse rx="102.4" ry="102.4" transform="matrix(.116647 0 0 0.116647 523.515016 417.875646)" fill="#1bc7c8"/><ellipse rx="102.4" ry="102.4" transform="matrix(.116647 0 0 0.116647 522.944291 313.963814)" fill="#1bc7c8"/><ellipse rx="102.4" ry="102.4" transform="matrix(.116647 0 0 0.116647 688.514232 535.239261)" fill="#1bc7c8" stroke-width="0"/><path d="" fill="none" stroke="#3f5787" stroke-width="2.048"/><path d="M346.332586,496.349353Q338.20902,306.382894,520.051913,314.50646" transform="translate(.000001 0)" fill="none" stroke="#1bc7c8" stroke-width="12"/><path d="" fill="none" stroke="#3f5787" stroke-width="2.048"/><path d="M523.515016,417.875646q172.524702-16.079668,164.504843,118.022343" transform="matrix(.999999 0.001178-.001178 0.999999 0.631507-2.036817)" fill="none" stroke="#1bc7c8" stroke-width="12"/></svg>
